<svg viewBox="0 0 850.149 1045.38" xmlns="http://www.w3.org/2000/svg"><path d="M425.075 412.273c138.746 0 251.22 112.476 251.22 251.22S563.82 914.716 425.076 914.716c-138.746 0-251.22-112.476-251.22-251.22.154-138.684 112.537-251.067 251.205-251.222h.015zm0 434.176c101.043 0 182.955-81.913 182.955-182.956S526.118 480.54 425.075 480.54 242.12 562.45 242.12 663.493c.13 100.99 81.964 182.825 182.942 182.955h.013zm-129.707-4.96l-48.242-48.334 307.655-307.2 48.243 48.333zM0 21.332h613.08L850.15 258.4v786.933H0zM584.774 89.6H68.267v887.467H781.88V286.71zM850.15 350.378H521.103V21.333h91.978L850.15 258.4zm-260.78-68.266h187.915L589.37 94.197z"/></svg>