<?xml version="1.0" standalone="no"?>
<!DOCTYPE svg PUBLIC "-//W3C//DTD SVG 20010904//EN"
 "http://www.w3.org/TR/2001/REC-SVG-20010904/DTD/svg10.dtd">
<svg version="1.0" xmlns="http://www.w3.org/2000/svg"
 width="512.000000pt" height="512.000000pt" viewBox="0 0 512.000000 512.000000"
 preserveAspectRatio="xMidYMid meet">

<g transform="translate(0.000000,512.000000) scale(0.100000,-0.100000)"
fill="#000000" stroke="none">
<path d="M1317 4624 c-423 -76 -748 -403 -822 -829 -23 -131 -23 -2339 0
-2470 75 -429 401 -755 830 -830 131 -23 2339 -23 2470 0 429 75 755 401 830
830 23 131 23 2339 0 2470 -75 429 -401 755 -830 830 -125 22 -2357 21 -2478
-1z m2518 -336 c112 -39 198 -92 280 -173 81 -82 134 -168 173 -280 l27 -80 0
-1195 0 -1195 -27 -80 c-39 -112 -92 -198 -173 -280 -82 -81 -168 -134 -280
-173 l-80 -27 -1195 0 -1195 0 -80 27 c-112 39 -198 92 -280 173 -125 126
-193 277 -201 455 l-5 95 320 410 c177 226 325 409 331 407 6 -1 140 -88 298
-194 158 -105 301 -196 318 -201 47 -14 100 0 142 38 20 18 190 227 377 463
l340 429 5 -178 c4 -159 7 -180 26 -205 32 -44 68 -66 116 -71 58 -7 108 15
144 63 l29 37 0 392 0 392 -29 37 c-50 65 -53 66 -466 66 -349 0 -373 -1 -409
-20 -59 -30 -84 -78 -79 -151 4 -48 10 -65 34 -90 48 -51 60 -54 227 -59 l159
-5 -297 -375 c-164 -206 -301 -379 -306 -384 -5 -6 -133 74 -313 193 -288 192
-307 203 -353 204 -26 0 -62 -7 -79 -16 -21 -11 -118 -127 -274 -329 -134
-172 -247 -317 -252 -323 -5 -6 -7 344 -6 830 l3 840 27 80 c83 245 272 414
523 470 48 11 286 13 1230 12 l1170 -2 80 -27z"/>
</g>
</svg>
