<?xml version="1.0" encoding="utf-8"?>
<!-- Svg Vector Icons : http://www.onlinewebfonts.com/icon -->
<!DOCTYPE svg PUBLIC "-//W3C//DTD SVG 1.1//EN" "http://www.w3.org/Graphics/SVG/1.1/DTD/svg11.dtd">
<svg version="1.1" xmlns="http://www.w3.org/2000/svg" xmlns:xlink="http://www.w3.org/1999/xlink" x="0px" y="0px" viewBox="0 0 256 256" enable-background="new 0 0 256 256" xml:space="preserve">
<metadata> Svg Vector Icons : http://www.onlinewebfonts.com/icon </metadata>
<g><g><g><path fill="#000000" d="M117.4,10.4C95.3,12.6,74.6,20.6,56.6,34c-5.7,4.2-18.3,16.8-22.5,22.5C6.6,93.3,2.3,141.1,22.8,181.4c6.1,11.9,11.9,19.8,21.9,29.8c10.6,10.6,18.4,16.2,31.4,22.6c14.6,7.2,27.7,10.7,44.4,11.9c16.8,1.2,35.9-1.8,51.5-8.2c26.3-10.8,47.8-30.2,60.7-55.2c17.7-34.1,17.8-73.7,0.2-108.3C227,62.5,220,53.1,210,43.4c-9.7-9.4-18.6-15.7-30.6-21.4c-11.4-5.5-21.9-8.8-34.1-10.7C138.3,10.2,124.1,9.8,117.4,10.4z M138,25.2c40.5,3.9,75.1,31.5,88,70.2c9.6,28.8,6,60.4-9.8,86.3c-3.7,6.2-8.5,12.3-13.9,17.9c-40.8,42.2-107.8,42.2-148.5,0C18.5,163.1,14.9,107,45.3,66.1C49.8,60,60,49.8,66.2,45.2C87,29.8,112.5,22.7,138,25.2z"/><path fill="#000000" d="M118.5,40c-21.3,2.1-42.7,13.2-57,29.6C45,88.5,37.2,113.3,40.2,138.1c3.5,29.7,21.3,55.2,48,68.8c34,17.2,75.2,10.6,102.3-16.4c9.8-9.8,17.3-22,21.5-35.1c7.2-22.5,5.5-45.6-5-66.9C190.6,55.4,155.7,36.3,118.5,40z M136.3,54.7c9.4,1.2,16.5,3.3,24.7,7.4c7.3,3.6,13.2,7.9,19.1,13.8c22.4,22.4,28,56.1,14.1,84.6c-10.1,20.7-29.3,35.4-52.5,40c-7.4,1.5-20,1.5-27.4,0c-7.1-1.4-12.6-3.3-19.2-6.6c-7.3-3.6-13.2-7.9-19.1-13.8C46.8,151,47,104.3,76.4,75.4C88,64,102.8,56.8,119.2,54.7C123.6,54.1,131.8,54.1,136.3,54.7z"/><path fill="#000000" d="M120.4,69.5c-7.7,1.1-15.9,3.9-22.4,7.8c-5.3,3.1-8,5.3-12.6,10.1c-7.9,8.2-12.9,17.8-15.4,29.5c-1.1,5.4-1.1,16.7,0,22.1c2.6,12.5,8.2,22.7,17.1,31.3c8.4,8.1,17.9,13.1,29.8,15.6c5.4,1.1,16.7,1.1,22.1,0c12.7-2.7,23.1-8.4,31.7-17.6c7.8-8.3,12.6-17.5,15.1-29.1c1.1-5.1,1.1-17.5,0-22.6c-2.7-12.4-8.3-22.5-17.1-31c-8.4-8.1-18-13.2-29.6-15.5C134.8,69.2,124.8,68.9,120.4,69.5z M135.5,84.4c9.2,1.6,16.9,5.6,23.7,12.4c6.1,6.2,9.9,12.9,12,21.3c1.1,4.4,1.1,15.4,0,19.7c-2.1,8.5-5.8,14.9-12.1,21.3c-6.3,6.3-12.7,9.9-21.3,12.1c-4.7,1.2-15.8,1.1-20.5-0.2c-22.8-6.2-36.9-27.8-32.9-50.5c1.6-9.2,5.6-16.9,12.4-23.7C107.3,86.4,121.3,81.9,135.5,84.4z"/><path fill="#000000" d="M121.8,99.2c-16.9,3.6-27.2,21.7-21.7,38c1.6,4.6,3.7,8,7.2,11.5c8.2,8.2,19.8,10.8,30.7,7c13.5-4.7,21.8-19.3,18.9-33.2C153.6,106.1,138,95.8,121.8,99.2z M134.3,114.6c2.9,1.4,5.7,4.2,7.1,7.1c1.6,3.3,1.6,9.1,0,12.4c-1.4,3-4.2,5.7-7.1,7.1c-3.3,1.6-9.1,1.6-12.4,0c-8.2-4-11-14-6-21.5c1.8-2.6,4.8-5,7.8-5.9C126.4,112.9,131.5,113.3,134.3,114.6z"/></g></g></g>
</svg>